<?xml version="1.0" standalone="no"?>
<!DOCTYPE svg PUBLIC "-//W3C//DTD SVG 20010904//EN"
 "http://www.w3.org/TR/2001/REC-SVG-20010904/DTD/svg10.dtd">
<svg version="1.0" xmlns="http://www.w3.org/2000/svg"
 width="250.000000pt" height="250.000000pt" viewBox="0 0 250.000000 250.000000"
 preserveAspectRatio="xMidYMid meet">
<metadata>
Created by potrace 1.14, written by Peter Selinger 2001-2017
</metadata>
<g transform="translate(0.000000,250.000000) scale(0.100000,-0.100000)"
fill="#000000" stroke="none">
<path d="M1020 2475 c-189 -40 -330 -97 -470 -191 -63 -42 -77 -54 -151 -119
-139 -125 -272 -333 -334 -525 -71 -220 -81 -488 -25 -701 123 -468 507 -828
975 -914 11 -2 34 -7 50 -10 109 -22 369 -8 500 26 550 144 938 650 930 1216
-1 70 -5 153 -10 183 -7 53 -47 204 -64 245 -73 176 -157 309 -265 423 -237
249 -540 381 -891 387 -113 2 -160 -2 -245 -20z"/>
</g>
</svg>
